<mxfile host="app.diagrams.net" modified="2023-10-23T15:01:01.255Z" agent="Mozilla/5.0 (Macintosh; Intel Mac OS X 10.15; rv:109.0) Gecko/20100101 Firefox/119.0" etag="1ERV36g9ZS_-LhZyS9oB" version="22.0.6" type="device">
  <diagram id="R2lEEEUBdFMjLlhIrx00" name="Page-1">
    <mxGraphModel dx="589" dy="367" grid="1" gridSize="10" guides="1" tooltips="1" connect="1" arrows="1" fold="1" page="1" pageScale="1" pageWidth="3300" pageHeight="4681" math="0" shadow="0" extFonts="Permanent Marker^https://fonts.googleapis.com/css?family=Permanent+Marker">
      <root>
        <mxCell id="0" />
        <mxCell id="1" parent="0" />
        <mxCell id="1GTwUBaE6gafLs46mViq-3" value="&lt;div&gt;Utenti&lt;/div&gt;" style="rounded=0;whiteSpace=wrap;html=1;" vertex="1" parent="1">
          <mxGeometry x="40" y="110" width="120" height="60" as="geometry" />
        </mxCell>
        <mxCell id="1GTwUBaE6gafLs46mViq-30" value="" style="endArrow=oval;html=1;rounded=0;exitX=0.5;exitY=0;exitDx=0;exitDy=0;endFill=0;" edge="1" parent="1" target="1GTwUBaE6gafLs46mViq-31">
          <mxGeometry width="50" height="50" relative="1" as="geometry">
            <mxPoint x="70" y="110" as="sourcePoint" />
            <mxPoint x="70" y="60" as="targetPoint" />
          </mxGeometry>
        </mxCell>
        <mxCell id="1GTwUBaE6gafLs46mViq-31" value="&lt;font style=&quot;font-size: 7px;&quot;&gt;Nome&lt;/font&gt;" style="text;html=1;strokeColor=none;fillColor=none;align=center;verticalAlign=middle;whiteSpace=wrap;rounded=0;" vertex="1" parent="1">
          <mxGeometry x="40" y="50" width="60" height="30" as="geometry" />
        </mxCell>
        <mxCell id="1GTwUBaE6gafLs46mViq-38" value="" style="endArrow=oval;html=1;rounded=0;exitX=0.417;exitY=0;exitDx=0;exitDy=0;endFill=0;exitPerimeter=0;" edge="1" parent="1" target="1GTwUBaE6gafLs46mViq-39" source="1GTwUBaE6gafLs46mViq-3">
          <mxGeometry width="50" height="50" relative="1" as="geometry">
            <mxPoint x="90" y="90" as="sourcePoint" />
            <mxPoint x="90" y="40" as="targetPoint" />
          </mxGeometry>
        </mxCell>
        <mxCell id="1GTwUBaE6gafLs46mViq-39" value="&lt;div style=&quot;font-size: 7px;&quot;&gt;Cognome&lt;/div&gt;" style="text;html=1;strokeColor=none;fillColor=none;align=center;verticalAlign=middle;whiteSpace=wrap;rounded=0;" vertex="1" parent="1">
          <mxGeometry x="60" y="20" width="60" height="30" as="geometry" />
        </mxCell>
        <mxCell id="1GTwUBaE6gafLs46mViq-41" value="" style="endArrow=oval;html=1;rounded=0;exitX=0.5;exitY=0;exitDx=0;exitDy=0;endFill=0;" edge="1" parent="1" target="1GTwUBaE6gafLs46mViq-42">
          <mxGeometry width="50" height="50" relative="1" as="geometry">
            <mxPoint x="110" y="110" as="sourcePoint" />
            <mxPoint x="110" y="60" as="targetPoint" />
          </mxGeometry>
        </mxCell>
        <mxCell id="1GTwUBaE6gafLs46mViq-42" value="&lt;font style=&quot;font-size: 7px;&quot;&gt;Email&lt;/font&gt;" style="text;html=1;strokeColor=none;fillColor=none;align=center;verticalAlign=middle;whiteSpace=wrap;rounded=0;" vertex="1" parent="1">
          <mxGeometry x="80" y="50" width="60" height="30" as="geometry" />
        </mxCell>
        <mxCell id="1GTwUBaE6gafLs46mViq-43" value="" style="endArrow=oval;html=1;rounded=0;exitX=0.417;exitY=0;exitDx=0;exitDy=0;endFill=0;exitPerimeter=0;" edge="1" parent="1" target="1GTwUBaE6gafLs46mViq-44">
          <mxGeometry width="50" height="50" relative="1" as="geometry">
            <mxPoint x="130" y="110" as="sourcePoint" />
            <mxPoint x="130" y="40" as="targetPoint" />
          </mxGeometry>
        </mxCell>
        <mxCell id="1GTwUBaE6gafLs46mViq-44" value="&lt;div style=&quot;font-size: 7px;&quot;&gt;Psw&lt;br&gt;&lt;/div&gt;" style="text;html=1;strokeColor=none;fillColor=none;align=center;verticalAlign=middle;whiteSpace=wrap;rounded=0;" vertex="1" parent="1">
          <mxGeometry x="100" y="20" width="60" height="30" as="geometry" />
        </mxCell>
        <mxCell id="1GTwUBaE6gafLs46mViq-45" value="" style="endArrow=oval;html=1;rounded=0;exitX=0.5;exitY=0;exitDx=0;exitDy=0;endFill=0;" edge="1" parent="1" target="1GTwUBaE6gafLs46mViq-46">
          <mxGeometry width="50" height="50" relative="1" as="geometry">
            <mxPoint x="150" y="110" as="sourcePoint" />
            <mxPoint x="150" y="60" as="targetPoint" />
          </mxGeometry>
        </mxCell>
        <mxCell id="1GTwUBaE6gafLs46mViq-46" value="&lt;font style=&quot;font-size: 7px;&quot;&gt;Ruolo&lt;/font&gt;" style="text;html=1;strokeColor=none;fillColor=none;align=center;verticalAlign=middle;whiteSpace=wrap;rounded=0;" vertex="1" parent="1">
          <mxGeometry x="120" y="50" width="60" height="30" as="geometry" />
        </mxCell>
        <mxCell id="1GTwUBaE6gafLs46mViq-53" value="" style="endArrow=oval;html=1;rounded=0;exitX=0.417;exitY=0;exitDx=0;exitDy=0;endFill=1;exitPerimeter=0;" edge="1" parent="1" target="1GTwUBaE6gafLs46mViq-54">
          <mxGeometry width="50" height="50" relative="1" as="geometry">
            <mxPoint x="50" y="110" as="sourcePoint" />
            <mxPoint x="50" y="40" as="targetPoint" />
          </mxGeometry>
        </mxCell>
        <mxCell id="1GTwUBaE6gafLs46mViq-54" value="&lt;div style=&quot;font-size: 7px;&quot;&gt;ID_utente&lt;/div&gt;" style="text;html=1;strokeColor=none;fillColor=none;align=center;verticalAlign=middle;whiteSpace=wrap;rounded=0;" vertex="1" parent="1">
          <mxGeometry x="20" y="20" width="60" height="30" as="geometry" />
        </mxCell>
        <mxCell id="1GTwUBaE6gafLs46mViq-55" value="Veicoli" style="rounded=0;whiteSpace=wrap;html=1;" vertex="1" parent="1">
          <mxGeometry x="350" y="110" width="120" height="60" as="geometry" />
        </mxCell>
        <mxCell id="1GTwUBaE6gafLs46mViq-56" value="" style="endArrow=oval;html=1;rounded=0;exitX=0.5;exitY=0;exitDx=0;exitDy=0;endFill=0;" edge="1" parent="1" target="1GTwUBaE6gafLs46mViq-57">
          <mxGeometry width="50" height="50" relative="1" as="geometry">
            <mxPoint x="380" y="110" as="sourcePoint" />
            <mxPoint x="380" y="60" as="targetPoint" />
          </mxGeometry>
        </mxCell>
        <mxCell id="1GTwUBaE6gafLs46mViq-57" value="&lt;font style=&quot;font-size: 7px;&quot;&gt;Marca&lt;/font&gt;" style="text;html=1;strokeColor=none;fillColor=none;align=center;verticalAlign=middle;whiteSpace=wrap;rounded=0;" vertex="1" parent="1">
          <mxGeometry x="350" y="50" width="60" height="30" as="geometry" />
        </mxCell>
        <mxCell id="1GTwUBaE6gafLs46mViq-58" value="" style="endArrow=oval;html=1;rounded=0;exitX=0.417;exitY=0;exitDx=0;exitDy=0;endFill=0;exitPerimeter=0;" edge="1" parent="1" source="1GTwUBaE6gafLs46mViq-55" target="1GTwUBaE6gafLs46mViq-59">
          <mxGeometry width="50" height="50" relative="1" as="geometry">
            <mxPoint x="400" y="90" as="sourcePoint" />
            <mxPoint x="400" y="40" as="targetPoint" />
          </mxGeometry>
        </mxCell>
        <mxCell id="1GTwUBaE6gafLs46mViq-59" value="&lt;font style=&quot;font-size: 7px;&quot;&gt;Modello&lt;/font&gt;" style="text;html=1;strokeColor=none;fillColor=none;align=center;verticalAlign=middle;whiteSpace=wrap;rounded=0;" vertex="1" parent="1">
          <mxGeometry x="370" y="20" width="60" height="30" as="geometry" />
        </mxCell>
        <mxCell id="1GTwUBaE6gafLs46mViq-60" value="" style="endArrow=oval;html=1;rounded=0;exitX=0.5;exitY=0;exitDx=0;exitDy=0;endFill=1;fontColor=#FFFFFF;strokeColor=#000000;labelBackgroundColor=#757575;" edge="1" parent="1" target="1GTwUBaE6gafLs46mViq-61">
          <mxGeometry width="50" height="50" relative="1" as="geometry">
            <mxPoint x="420" y="110" as="sourcePoint" />
            <mxPoint x="420" y="60" as="targetPoint" />
          </mxGeometry>
        </mxCell>
        <mxCell id="1GTwUBaE6gafLs46mViq-61" value="&lt;font style=&quot;font-size: 7px;&quot;&gt;ID_&lt;font style=&quot;font-size: 7px;&quot;&gt;Autista&lt;/font&gt;&lt;/font&gt;" style="text;html=1;strokeColor=none;fillColor=none;align=center;verticalAlign=middle;whiteSpace=wrap;rounded=0;" vertex="1" parent="1">
          <mxGeometry x="390" y="50" width="60" height="30" as="geometry" />
        </mxCell>
        <mxCell id="1GTwUBaE6gafLs46mViq-66" value="" style="endArrow=oval;html=1;rounded=0;exitX=0.417;exitY=0;exitDx=0;exitDy=0;endFill=1;exitPerimeter=0;" edge="1" parent="1" target="1GTwUBaE6gafLs46mViq-67">
          <mxGeometry width="50" height="50" relative="1" as="geometry">
            <mxPoint x="360" y="110" as="sourcePoint" />
            <mxPoint x="360" y="40" as="targetPoint" />
          </mxGeometry>
        </mxCell>
        <mxCell id="1GTwUBaE6gafLs46mViq-67" value="&lt;div style=&quot;font-size: 7px;&quot;&gt;Targa&lt;/div&gt;" style="text;html=1;strokeColor=none;fillColor=none;align=center;verticalAlign=middle;whiteSpace=wrap;rounded=0;" vertex="1" parent="1">
          <mxGeometry x="330" y="20" width="60" height="30" as="geometry" />
        </mxCell>
        <mxCell id="1GTwUBaE6gafLs46mViq-72" value="&lt;div&gt;Guida&lt;/div&gt;" style="shape=rhombus;perimeter=rhombusPerimeter;whiteSpace=wrap;html=1;align=center;" vertex="1" parent="1">
          <mxGeometry x="220" y="120" width="70" height="40" as="geometry" />
        </mxCell>
        <mxCell id="1GTwUBaE6gafLs46mViq-73" value="" style="endArrow=none;html=1;rounded=0;exitX=1;exitY=0.5;exitDx=0;exitDy=0;" edge="1" parent="1" source="1GTwUBaE6gafLs46mViq-3">
          <mxGeometry relative="1" as="geometry">
            <mxPoint x="140" y="140" as="sourcePoint" />
            <mxPoint x="220" y="140" as="targetPoint" />
          </mxGeometry>
        </mxCell>
        <mxCell id="1GTwUBaE6gafLs46mViq-74" value="&lt;div&gt;0,n&lt;/div&gt;" style="resizable=0;html=1;whiteSpace=wrap;align=right;verticalAlign=bottom;" connectable="0" vertex="1" parent="1GTwUBaE6gafLs46mViq-73">
          <mxGeometry x="1" relative="1" as="geometry" />
        </mxCell>
        <mxCell id="1GTwUBaE6gafLs46mViq-75" value="" style="endArrow=none;html=1;rounded=0;exitX=1;exitY=0.5;exitDx=0;exitDy=0;" edge="1" parent="1">
          <mxGeometry relative="1" as="geometry">
            <mxPoint x="350" y="139.92" as="sourcePoint" />
            <mxPoint x="290" y="139.92" as="targetPoint" />
          </mxGeometry>
        </mxCell>
        <mxCell id="1GTwUBaE6gafLs46mViq-76" value="0,n" style="resizable=0;html=1;whiteSpace=wrap;align=right;verticalAlign=bottom;" connectable="0" vertex="1" parent="1GTwUBaE6gafLs46mViq-75">
          <mxGeometry x="1" relative="1" as="geometry">
            <mxPoint x="10" as="offset" />
          </mxGeometry>
        </mxCell>
        <mxCell id="1GTwUBaE6gafLs46mViq-77" value="" style="shape=waypoint;sketch=0;fillStyle=solid;size=6;pointerEvents=1;points=[];fillColor=none;resizable=0;rotatable=0;perimeter=centerPerimeter;snapToPoint=1;strokeColor=#8F8F8F;" vertex="1" parent="1">
          <mxGeometry x="410" y="70" width="20" height="20" as="geometry" />
        </mxCell>
      </root>
    </mxGraphModel>
  </diagram>
</mxfile>
